<svg width="52" height="52" viewBox="0 0 52 52" fill="none" xmlns="http://www.w3.org/2000/svg">
<rect width="52" height="52" rx="26" fill="#C8C3C2"/>
<path d="M26 12.5C23.33 12.5 20.7199 13.2918 18.4998 14.7752C16.2797 16.2586 14.5494 18.367 13.5276 20.8338C12.5058 23.3006 12.2385 26.015 12.7594 28.6337C13.2803 31.2525 14.566 33.6579 16.4541 35.5459C18.3421 37.434 20.7475 38.7197 23.3663 39.2406C25.985 39.7615 28.6994 39.4942 31.1662 38.4724C33.633 37.4506 35.7414 35.7203 37.2248 33.5002C38.7082 31.2801 39.5 28.67 39.5 26C39.496 22.4208 38.0724 18.9893 35.5416 16.4584C33.0107 13.9276 29.5792 12.504 26 12.5ZM26 36.5C23.9233 36.5 21.8932 35.8842 20.1665 34.7304C18.4398 33.5767 17.094 31.9368 16.2993 30.0182C15.5045 28.0996 15.2966 25.9884 15.7018 23.9516C16.1069 21.9148 17.1069 20.0438 18.5754 18.5754C20.0438 17.1069 21.9147 16.1069 23.9515 15.7018C25.9884 15.2966 28.0995 15.5045 30.0182 16.2993C31.9368 17.094 33.5767 18.4398 34.7304 20.1665C35.8842 21.8932 36.5 23.9233 36.5 26C36.497 28.7839 35.3898 31.4528 33.4213 33.4213C31.4528 35.3898 28.7839 36.497 26 36.5ZM32.5 26C32.5 26.3978 32.342 26.7794 32.0607 27.0607C31.7794 27.342 31.3978 27.5 31 27.5H24.625L26.065 28.9387C26.3468 29.2205 26.5051 29.6027 26.5051 30.0012C26.5051 30.3998 26.3468 30.782 26.065 31.0637C25.7832 31.3455 25.401 31.5039 25.0025 31.5039C24.604 31.5039 24.2218 31.3455 23.94 31.0637L19.94 27.0637C19.8002 26.9244 19.6892 26.7588 19.6135 26.5765C19.5378 26.3941 19.4988 26.1987 19.4988 26.0012C19.4988 25.8038 19.5378 25.6084 19.6135 25.426C19.6892 25.2437 19.8002 25.0781 19.94 24.9388L23.94 20.9388C24.0795 20.7992 24.2452 20.6885 24.4275 20.613C24.6098 20.5375 24.8052 20.4986 25.0025 20.4986C25.1998 20.4986 25.3952 20.5375 25.5775 20.613C25.7598 20.6885 25.9255 20.7992 26.065 20.9388C26.2045 21.0783 26.3152 21.2439 26.3907 21.4262C26.4662 21.6085 26.5051 21.8039 26.5051 22.0013C26.5051 22.1986 26.4662 22.394 26.3907 22.5763C26.3152 22.7586 26.2045 22.9242 26.065 23.0638L24.625 24.5H31C31.3978 24.5 31.7794 24.658 32.0607 24.9393C32.342 25.2206 32.5 25.6022 32.5 26Z" fill="#0F0B0C"/>
</svg>
