<svg width="52" height="52" viewBox="0 0 52 52" fill="none" xmlns="http://www.w3.org/2000/svg">
<rect width="52" height="52" rx="26" fill="#C8C3C2"/>
<path d="M26 12.5C23.33 12.5 20.7199 13.2918 18.4998 14.7752C16.2797 16.2586 14.5494 18.367 13.5276 20.8338C12.5058 23.3006 12.2385 26.015 12.7594 28.6337C13.2803 31.2525 14.566 33.6579 16.4541 35.5459C18.3421 37.434 20.7475 38.7197 23.3663 39.2406C25.985 39.7615 28.6994 39.4942 31.1662 38.4724C33.633 37.4506 35.7414 35.7203 37.2248 33.5002C38.7082 31.2801 39.5 28.67 39.5 26C39.496 22.4208 38.0724 18.9893 35.5416 16.4584C33.0107 13.9276 29.5792 12.504 26 12.5ZM26 36.5C23.9233 36.5 21.8932 35.8842 20.1665 34.7304C18.4398 33.5767 17.094 31.9368 16.2993 30.0182C15.5045 28.0996 15.2966 25.9884 15.7018 23.9516C16.1069 21.9148 17.1069 20.0438 18.5754 18.5754C20.0438 17.1069 21.9147 16.1069 23.9515 15.7018C25.9883 15.2966 28.0995 15.5045 30.0182 16.2993C31.9368 17.094 33.5767 18.4398 34.7304 20.1665C35.8842 21.8932 36.5 23.9233 36.5 26C36.497 28.7839 35.3898 31.4528 33.4213 33.4213C31.4528 35.3898 28.7839 36.497 26 36.5ZM32.0612 24.9388C32.2011 25.0781 32.312 25.2437 32.3878 25.426C32.4635 25.6083 32.5024 25.8038 32.5024 26.0012C32.5024 26.1987 32.4635 26.3941 32.3878 26.5765C32.312 26.7588 32.2011 26.9244 32.0612 27.0637L28.0612 31.0637C27.9217 31.2033 27.7561 31.314 27.5738 31.3895C27.3915 31.465 27.1961 31.5039 26.9987 31.5039C26.8014 31.5039 26.606 31.465 26.4237 31.3895C26.2414 31.314 26.0758 31.2033 25.9362 31.0637C25.7967 30.9242 25.686 30.7586 25.6105 30.5763C25.535 30.394 25.4961 30.1986 25.4961 30.0012C25.4961 29.8039 25.535 29.6085 25.6105 29.4262C25.686 29.2439 25.7967 29.0783 25.9362 28.9387L27.375 27.5H21C20.6022 27.5 20.2206 27.342 19.9393 27.0607C19.658 26.7794 19.5 26.3978 19.5 26C19.5 25.6022 19.658 25.2206 19.9393 24.9393C20.2206 24.658 20.6022 24.5 21 24.5H27.375L25.935 23.0612C25.7955 22.9217 25.6848 22.7561 25.6093 22.5738C25.5338 22.3915 25.4949 22.1961 25.4949 21.9987C25.4949 21.8014 25.5338 21.606 25.6093 21.4237C25.6848 21.2414 25.7955 21.0758 25.935 20.9362C26.0745 20.7967 26.2402 20.686 26.4225 20.6105C26.6048 20.535 26.8002 20.4961 26.9975 20.4961C27.1948 20.4961 27.3902 20.535 27.5725 20.6105C27.7548 20.686 27.9205 20.7967 28.06 20.9362L32.0612 24.9388Z" fill="#0F0B0C"/>
</svg>
